<svg width="221" height="62" viewBox="0 0 221 62" fill="none" xmlns="http://www.w3.org/2000/svg">
<g clip-path="url(#clip0_703_4054)">
<path d="M80.0002 46.9993C78.546 47.0111 77.2038 47.1824 76.0002 47.9993C74.7967 48.8161 74.549 50.6517 74.0002 51.9993C73.4514 53.3469 72.71 54.5733 73.0002 55.9993C73.2904 57.4252 73.9684 58.9738 75.0002 59.9993C76.032 61.0248 77.5733 61.7185 79.0002 61.9993C80.4271 62.2801 81.6572 61.5575 83.0002 60.9993C84.3432 60.4411 86.192 60.2091 87.0002 58.9993C87.8084 57.7895 87.9982 56.4545 88.0002 54.9993C88.0083 54.0233 87.3713 52.9019 87.0002 51.9993C86.6292 51.0966 86.6922 49.6871 86.0002 48.9993C85.3082 48.3115 83.9047 48.3645 83.0002 47.9993C82.0957 47.6341 80.9755 46.9846 80.0002 46.9993ZM80.0002 60.9993C78.7092 61.0131 78.0802 60.7071 77.0002 59.9993C75.9202 59.2915 74.5034 58.189 74.0002 56.9993C73.497 55.8096 73.7561 54.2678 74.0002 52.9993C74.2443 51.7307 75.0915 50.917 76.0002 49.9993C76.9089 49.0816 77.7348 48.2552 79.0002 47.9993C80.2657 47.7433 81.8067 47.5068 83.0002 47.9993C84.1938 48.4918 85.2829 49.9252 86.0002 50.9993C86.7175 52.0734 87.0021 53.7074 87.0002 54.9993C87.0205 55.8535 87.3161 56.2054 87.0002 56.9993C86.6843 57.7931 85.6017 58.3927 85.0002 58.9993C84.3987 59.6058 83.7911 60.6771 83.0002 60.9993C82.2093 61.3215 80.854 61.0129 80.0002 60.9993Z" fill="#010101"/>
<path d="M99 54.9992C98.1117 54.4398 96.9686 53.4084 96 52.9992C94.5953 52.315 94 52.4931 94 50.9992C93.9833 50.6569 93.875 49.3189 94 48.9992C94.125 48.6796 94.7547 49.2416 95 48.9992C95.2453 48.7569 95.6764 48.1227 96 47.9992C96.3236 47.8758 96.6535 47.9827 97 47.9992C97.5752 47.99 97.512 47.6983 98 47.9992C98.488 48.3002 99.7557 49.4847 100 49.9992V48.9992C99.6658 48.4005 99.6004 48.3392 99 47.9992C98.3996 47.6593 97.6918 46.9814 97 46.9992C96.5306 46.9724 95.4407 46.8373 95 46.9992C94.5593 47.1612 94.3375 47.6758 94 47.9992C93.6625 48.3227 93.1773 48.5689 93 48.9992C92.8227 49.4295 92.9871 50.5349 93 50.9992C92.9946 51.5532 92.7077 51.5265 93 51.9992C93.4878 52.7896 94.6148 53.3342 96 53.9992C97.1511 54.5582 98.5805 54.7583 99 54.9992C99.4035 55.198 99.7607 55.6217 100 55.9992C100.239 56.3768 99.9953 57.5538 100 57.9992C99.9964 58.4303 100.173 58.6037 100 58.9992C99.8266 59.3948 99.3157 59.7017 99 59.9992C98.6843 60.2968 98.4081 60.8468 98 60.9992C97.5919 61.1517 96.436 61.016 96 60.9992C95.501 61.0062 95.4539 61.2043 95 60.9992C94.5461 60.7942 94.3211 60.3767 94 59.9992C93.6823 59.5999 93.1801 58.4749 93 57.9992L92 58.9992C92.1985 59.5578 92.5996 59.5589 93 59.9992C93.3896 60.4748 93.4361 61.7466 94 61.9992C94.5639 62.2519 95.3813 62.023 96 61.9992C96.5573 62.0225 97.4771 62.1911 98 61.9992C98.5229 61.8074 99.593 61.3762 100 60.9992C100.407 60.6223 100.773 59.5025 101 58.9992C101.227 58.496 100.988 58.5502 101 57.9992C101.012 57.4648 101.26 56.4679 101 55.9992C100.74 55.5306 99.4626 55.2765 99 54.9992Z" fill="#010101"/>
<path d="M114 60L108 47L106 62H107L108 50L114 62L120 50L121 62H122L120 47L114 60Z" fill="#010101"/>
<path d="M134 46.9993C132.546 47.0111 131.204 47.1824 130 47.9993C128.797 48.8161 128.549 50.6517 128 51.9993C127.451 53.3469 126.71 54.5733 127 55.9993C127.29 57.4252 127.968 58.9738 129 59.9993C130.032 61.0248 131.573 61.7185 133 61.9993C134.427 62.2801 135.657 61.5575 137 60.9993C138.343 60.4411 140.192 60.2091 141 58.9993C141.808 57.7895 141.998 56.4545 142 54.9993C142.008 54.0233 141.371 52.9019 141 51.9993C140.629 51.0966 140.692 49.6871 140 48.9993C139.308 48.3115 137.905 48.3645 137 47.9993C136.096 47.6341 134.975 46.9846 134 46.9993ZM134 60.9993C132.71 61.0111 132.079 60.7079 131 59.9993C129.922 59.2907 128.502 58.1886 128 56.9993C127.498 55.81 127.756 54.2669 128 52.9993C128.245 51.7316 129.092 50.9164 130 49.9993C130.908 49.0822 131.736 48.2555 133 47.9993C134.265 47.743 135.807 47.508 137 47.9993C138.193 48.4905 139.282 49.9267 140 50.9993C140.718 52.0719 141 53.7083 141 54.9993C141.022 55.8552 141.316 56.2036 141 56.9993C140.684 57.795 139.603 58.3915 139 58.9993C138.398 59.607 137.793 60.6771 137 60.9993C136.207 61.3215 134.856 61.0143 134 60.9993Z" fill="#010101"/>
<path d="M149 47H148V61H153V60H149V47Z" fill="#010101"/>
<path d="M163 54.9992C162.107 54.4423 161.97 53.4108 161 52.9992C159.595 52.3151 158 52.4928 158 50.9992C157.983 50.657 157.875 49.3189 158 48.9992C158.125 48.6796 158.755 49.2415 159 48.9992C159.245 48.7569 159.676 48.1227 160 47.9992C160.324 47.8758 160.654 47.9827 161 47.9992C161.574 47.9919 161.514 47.6985 162 47.9992C162.486 48.3 163.756 49.4863 164 49.9992V48.9992C163.669 48.4 163.599 48.3394 163 47.9992C162.401 47.6591 161.691 46.9799 161 46.9992C160.531 46.9724 159.441 46.8373 159 46.9992C158.559 47.1612 158.337 47.6758 158 47.9992C157.663 48.3226 157.177 48.569 157 48.9992C156.823 49.4294 156.987 50.5349 157 50.9992C156.995 51.5531 156.708 51.5266 157 51.9992C157.478 52.7894 158.615 53.3344 160 53.9992C161.161 54.5581 162.571 54.7583 163 54.9992C163.409 55.2018 163.76 55.6145 164 55.9992C164.24 56.3839 164.001 57.5476 164 57.9992C163.993 58.4324 164.179 58.6036 164 58.9992C163.821 59.3949 163.322 59.7048 163 59.9992C162.678 60.2937 162.413 60.8533 162 60.9992C161.587 61.1451 160.438 61.0253 160 60.9992C159.501 61.0062 159.454 61.2042 159 60.9992C158.546 60.7942 158.321 60.3766 158 59.9992C157.682 59.6 157.18 58.4748 157 57.9992L156 58.9992C156.194 59.5576 156.602 59.5592 157 59.9992C157.394 60.4775 157.431 61.7466 158 61.9992C158.569 62.2519 159.377 62.0261 160 61.9992C160.557 62.0224 161.478 62.1911 162 61.9992C162.522 61.8073 163.594 61.3762 164 60.9992C164.406 60.6222 164.774 59.5023 165 58.9992C165.226 58.4962 164.989 58.5497 165 57.9992C165.018 57.4694 165.252 56.4675 165 55.9992C164.748 55.5309 163.454 55.2817 163 54.9992Z" fill="#010101"/>
<path d="M179 47H177L171 54V47H170V61H171V55V54L178 61H179L172 54L179 47Z" fill="#010101"/>
<path d="M183 62H184L186 57H192L194 62H195L189 47L183 62ZM186 56L189 49L192 56H186Z" fill="#010101"/>
<path d="M202 54L198 47H197L202 55V61H203V55L208 47H207L202 54Z" fill="#010101"/>
<path d="M215 47L209 62H210L212 57H218L220 62H221L215 47ZM212 56L215 49L218 56H212Z" fill="#010101"/>
<path d="M100 28C100 31.1763 98.6372 32 97 32V33H107V32C105.323 32 104 31.1358 104 28V9C104 6.32948 105.313 6 107 6V5H100L92 27L82 5H74V6C74.8974 5.96844 76.2261 5.54132 77 6C77.7739 6.45868 78.5917 7.19455 79 8V23C79 27.4408 77.8313 32 73 32V33H84V32C79.6709 32 79 27.5621 79 23V9L90 33L100 6V28Z" fill="#010101"/>
<path d="M145 28C145 28 139.842 16.2669 135 5L128 22C124.557 30.8871 123.512 31.9605 122 32H131C125.483 32.1481 126.927 27.071 128 24H138L140 27C140.909 29.1428 141.135 32 139 32H148C146.907 31.921 146.308 31.071 145 28ZM128 23L133 11L138 23H128Z" fill="#010101"/>
<path d="M184 5H174V6C179.24 6 177.32 10.3099 176 13L173 19L167 10C164.36 5.58901 166.92 5 168 5H158C159.28 5.07912 160.26 5.11209 162 8C162 8 163.29 11.0209 169 21V28C169 31.1154 167.63 32 166 32H176C174.37 32 173 31.1154 173 28V20L176 14C180.31 5.55385 182.33 6 184 6V5Z" fill="#010101"/>
<path d="M204 32C198.5 32.1481 199.929 27.071 201 24H211L213 27C213.908 29.1428 214.143 32 212 32H221C219.888 31.921 219.306 31.1105 218 28C218 28 212.827 16.2669 208 5L201 22C197.551 30.8871 196.5 31.9605 195 32H204ZM206 11L211 23H201L206 11Z" fill="#010101"/>
<path d="M30.0002 28.9995C31.8897 22.2485 35.764 15.8228 39.0002 11.9995C39.0564 11.9269 38.9935 12.0899 39.0002 11.9995C39.0068 11.9091 39.0452 11.079 39.0002 10.9995C38.9551 10.92 39.0827 11.0429 39.0002 10.9995C38.9177 10.9561 38.0939 10.9931 38.0002 10.9995C37.2694 11.1001 37.4073 10.919 37.0002 10.9995C36.4551 11.0717 35.4577 11.705 35.0002 11.9995C34.5426 12.2941 34.2781 12.5418 34.0002 12.9995C30.7222 19.5091 26.1154 29.923 21.0002 30.9995C20.681 31.0632 20.2967 31.1298 20.0002 30.9995C19.7036 30.8693 19.1597 30.2734 19.0002 29.9995C18.9068 29.8404 19.0311 30.1798 19.0002 29.9995C18.5199 27.6754 20.9645 20.2856 23.0002 15.9995L27.0002 5.99951C27.0096 5.978 27.0044 6.0225 27.0002 5.99951C26.9959 5.97652 27.0167 6.01655 27.0002 5.99951C26.9836 5.98248 27.0237 6.0051 27.0002 5.99951C26.9766 5.99393 27.023 5.99184 27.0002 5.99951C26.4356 6.17427 26.3275 6.523 26.0002 6.99951C23.0876 11.688 21.2677 15.5022 18.0002 19.9995C17.3425 20.9251 17.3864 22.5266 17.0002 22.9995C6.68607 36.0791 -1.24431 27.6521 1.00015 18.9995C0.708599 19.9559 0.964445 21.0033 1.00015 21.9995C0.91664 22.4623 1.00015 24.1846 1.00015 24.9995C1.00015 27.8971 -0.409158 23.2755 1.00015 18.9995C-1.08772 24.8149 0.967935 34.2392 11.0002 30.9995C15.4891 28.9873 16.0854 26.4024 20.0002 20.9995C18.048 24.3801 16.9123 30.8425 19.0002 31.9995C22.3616 33.9111 28.8849 24.5756 34.0002 16.9995C31.312 21.9325 29.7649 27.4766 29.0002 32.9995C29.265 32.0999 29.4427 30.7649 30.0002 29.9995C30.2092 29.6288 29.7502 29.3459 30.0002 28.9995Z" fill="#010101"/>
<path d="M46.0003 26.9997C45.4671 26.1375 43.8668 25.5078 43.0003 24.9997C42.1337 24.4916 40.9993 24.0358 40.0003 23.9997C38.843 23.9145 38.0836 24.576 37.0003 24.9997C35.803 25.4094 33.9752 25.1812 33.0003 25.9997C31.8929 26.8719 30.8557 27.8706 30.0003 28.9997L28.0003 32.9997C27.9421 33.306 28.0584 33.5154 28.0003 33.9997C27.9667 34.2985 27.9667 34.7009 28.0003 34.9997C28.0078 35.0265 27.9784 34.9829 28.0003 34.9997C28.0221 35.0165 27.9729 34.9997 28.0003 34.9997C28.0276 34.9997 27.9784 35.0165 28.0003 34.9997C28.0221 34.9829 27.9927 35.0265 28.0003 34.9997C28.332 33.6404 29.2601 32.1797 30.0003 30.9997C31.027 29.4973 32.5268 28.0466 34.0003 26.9997C35.5984 25.5382 37.8535 25.0019 40.0003 24.9997C40.2717 24.9997 40.7676 24.9503 41.0003 24.9997C41.6705 25.0054 42.4031 25.6892 43.0003 25.9997C43.5974 26.3101 44.602 26.4499 45.0003 26.9997C45.9631 28.482 46.3169 30.2458 46.0003 32.9997C45.7038 35.3042 43.988 37.9049 43.0003 39.9997C42.0444 42.1476 41.5129 44.215 40.0003 45.9997C38.9934 47.3395 36.584 48.5079 35.0003 48.9997C34.3489 49.1508 33.6645 49.0723 33.0003 48.9997C32.3906 48.9245 32.4806 48.3897 32.0003 47.9997C30.4979 46.8237 29.6319 45.2609 30.0003 41.9997C30.2359 39.3896 30.8897 36.3636 32.0003 33.9997C32.8977 32.0749 34.4178 30.392 36.0003 28.9997C36.0216 28.9793 35.9951 29.029 36.0003 28.9997C36.0054 28.9703 36.0133 29.0263 36.0003 28.9997C35.9872 28.973 36.0264 29.0131 36.0003 28.9997C35.9742 28.9863 36.029 28.9945 36.0003 28.9997C34.7949 29.4817 32.8738 30.0253 32.0003 30.9997C29.9416 33.4252 29.2459 36.8018 29.0003 39.9997C28.6427 42.361 29.0852 44.8001 30.0003 46.9997C30.292 47.8282 30.333 48.4411 31.0003 48.9997C31.6676 49.5582 33.1464 49.8693 34.0003 49.9997C34.6489 50.0701 35.366 50.1551 36.0003 49.9997C38.3265 49.5055 40.8033 47.7997 43.0003 44.9997C45.1876 42.0731 46.6534 38.6622 47.0003 34.9997C47.4368 32.4283 47.2398 29.2828 46.0003 26.9997Z" fill="#010101"/>
<path d="M30 30C29.7411 30.3641 29.2211 30.6092 29 31C28.4258 31.862 28.2728 32.9868 28 34L30 30Z" fill="#010101"/>
<path d="M2.00043 17.9997C1.7025 18.6784 1.17154 19.2776 1.00043 19.9997C1.14346 19.5383 1.80135 19.4393 2.00043 18.9997C4.48845 13.3973 7.83507 8.2379 13.0004 4.99966C18.1658 1.76141 24.9252 0.765689 31.0004 0.999656C37.0756 1.23362 43.0942 3.37353 48.0004 6.99966C52.9066 10.6258 55.9421 15.2222 58.0004 20.9997H59.0004C56.8975 15.1157 53.0039 9.68703 48.0004 5.99966C42.997 2.31229 37.1903 0.227139 31.0004 -0.000343939C24.8106 -0.227827 18.256 1.68932 13.0004 4.99966C7.74484 8.31 3.52123 13.2856 1.00043 18.9997C0.909783 19.2336 1.07093 18.7657 1.00043 18.9997C1.10808 18.6846 0.859817 18.3012 1.00043 17.9997C0.980286 17.9285 2.00043 17.9285 2.00043 17.9997Z" fill="#010101"/>
<path d="M1.00021 26.0001C1.00021 25.1245 0.869386 23.4974 1.00021 23.0001C0.951245 21.9441 0.550404 21.0139 1.00021 20.0001C1.27803 19.2327 1.51649 18.7215 2.00021 18.0001C2.00021 17.9244 1.03291 17.9244 1.00021 18.0001C0.773513 18.31 1.1766 18.6762 1.00021 19.0001C-1.20741 23.6269 1.00021 29.1135 1.00021 26.0001Z" fill="#010101"/>
<path d="M23.0002 60.0004C17.975 59.0052 12.8971 56.1887 9.00022 53.0004C5.1033 49.8121 2.79976 45.5889 1.00022 41.0004C0.80923 40.5014 0.161053 39.5186 0.000219188 39.0004C0.000219188 38.8661 -0.0299371 38.8949 0.000219188 39.0004V40.0004C0.202785 41.1982 0.449472 42.907 1.00022 44.0004C4.49966 50.6923 10.6642 56.3746 18.0002 59.0004C25.3362 61.6263 33.7549 61.8464 41.0002 59.0004V58.0004C35.385 60.2095 28.947 61.1777 23.0002 60.0004Z" fill="#010101"/>
<path d="M56 29L59 28V27H55H58L55 29L58 30L55 31L59 30L56 29Z" fill="#010101"/>
<path d="M56 33L57 34L56 35L55 36L59 35L56 33ZM59 35H57V34L59 35Z" fill="#010101"/>
<path d="M55 38L56 39V40H54V41L56 40L57 42L56 39L58 40V39L55 38Z" fill="#010101"/>
<path d="M52 44L53 42L54 43V45L55 43L56 44L55 46L56 44L53 42L52 44Z" fill="#010101"/>
<path d="M50 48.9999C49.8103 48.9794 49.1783 48.9328 49 48.9999C48.8217 49.067 48.1276 48.86 48 48.9999C47.8555 49.1229 48.0728 49.826 48 49.9999C47.9271 50.1738 47.9856 49.8123 48 49.9999C48.0707 50.3615 48.7095 50.7682 49 50.9999L50 52.9999L49 50.9999C48.7783 50.8154 48.0757 50.276 48 49.9999C47.986 49.8508 47.949 50.1409 48 49.9999C48.051 49.8589 48.8935 50.1066 49 49.9999C49.1065 49.8932 48.8578 49.0525 49 48.9999C49.1422 48.9473 48.8486 48.9886 49 48.9999C49.2781 49.0781 49.817 49.7791 50 49.9999L52 50.9999L50 49.9999C49.7748 49.7247 50.3489 49.0821 50 48.9999Z" fill="#010101"/>
<path d="M44.9999 52L45.9999 54H44.9999C44.8104 54.1479 45.0697 54.7205 44.9999 55C44.9733 55.1289 44.9843 54.8679 44.9999 55C45.0154 55.1321 44.945 55.8885 44.9999 56C45.054 56.112 44.9145 55.932 44.9999 56C45.0853 56.068 45.9009 55.99 45.9999 56C46.2174 56.0211 45.8295 56.1833 45.9999 56L46.9999 55L44.9999 52ZM46.9999 55L45.9999 56C45.944 56.0709 46.0726 55.9669 45.9999 56C45.9272 56.0331 46.0762 56.0106 45.9999 56C45.9235 55.9894 46.066 56.0525 45.9999 56C45.9337 55.9475 45.0437 55.0848 44.9999 55C44.7918 54.5797 45.7225 54.2522 45.9999 54L46.9999 55Z" fill="#010101"/>
</g>
<defs>
<clipPath id="clip0_703_4054">
<rect width="221" height="62" fill="white"/>
</clipPath>
</defs>
</svg>
